<svg width="29" height="29" viewBox="0 0 29 29" fill="none" xmlns="http://www.w3.org/2000/svg">
<g clip-path="url(#clip0_1_468)">
<path d="M8.01697 0.184864C7.76662 -0.0569801 7.3676 -0.0500078 7.12576 0.200345C6.88988 0.444611 6.88988 0.831809 7.12576 1.07602L20.5453 14.4968L7.12452 27.9164C6.87416 28.1583 6.86725 28.5572 7.10904 28.8076C7.35088 29.058 7.74984 29.0649 8.00025 28.8231C8.00551 28.818 8.01065 28.8129 8.01573 28.8076L21.8815 14.9418C22.1276 14.6957 22.1276 14.2968 21.8815 14.0506L8.01697 0.184864Z" fill="#F44336"/>
<path d="M7.5711 28.9929C7.22302 28.9936 6.94035 28.7118 6.9397 28.3638C6.9394 28.196 7.00605 28.0349 7.12488 27.9164L20.5457 14.4968L7.12488 1.07729C6.87842 0.83084 6.87842 0.431292 7.12488 0.18484C7.37133 -0.0616132 7.77088 -0.0616132 8.01733 0.18484L21.8831 14.0507C22.1292 14.2968 22.1292 14.6957 21.8831 14.9419L8.01733 28.8076C7.89916 28.9262 7.73856 28.9929 7.5711 28.9929Z" fill="white"/>
</g>
<defs>
<clipPath id="clip0_1_468">
<rect width="29" height="29" fill="white"/>
</clipPath>
</defs>
</svg>
