<svg width="33" height="22" viewBox="0 0 33 22" fill="none" xmlns="http://www.w3.org/2000/svg">
<g clip-path="url(#clip0_1_398)">
<path d="M17.0818 0.140082C16.8918 -0.0433862 16.5891 -0.0380969 16.4057 0.151826C16.2267 0.337131 16.2267 0.630868 16.4057 0.816129L26.5861 10.9974L16.4047 21.1778C16.2148 21.3613 16.2096 21.6639 16.393 21.8539C16.5765 22.0438 16.8791 22.0491 17.0691 21.8657C17.0731 21.8618 17.077 21.8579 17.0808 21.8539L27.5997 11.335C27.7864 11.1483 27.7864 10.8457 27.5997 10.6589L17.0818 0.140082Z" fill="#F44336"/>
<path d="M16.7436 21.9946C16.4796 21.9951 16.2651 21.7814 16.2646 21.5173C16.2644 21.39 16.315 21.2679 16.4051 21.178L26.5865 10.9976L16.4051 0.817256C16.2182 0.630292 16.2182 0.327187 16.4051 0.140223C16.5921 -0.046741 16.8952 -0.046741 17.0822 0.140223L27.6011 10.6591C27.7877 10.8458 27.7877 11.1485 27.6011 11.3352L17.0822 21.8541C16.9925 21.944 16.8707 21.9946 16.7436 21.9946Z" fill="black"/>
</g>
<g clip-path="url(#clip1_1_398)">
<path d="M6.08177 0.140082C5.89185 -0.0433862 5.58915 -0.0380969 5.40568 0.151826C5.22674 0.337131 5.22674 0.630868 5.40568 0.816129L15.5861 10.9974L5.40474 21.1778C5.21482 21.3613 5.20957 21.6639 5.39299 21.8539C5.57646 22.0438 5.87912 22.0491 6.06909 21.8657C6.07308 21.8618 6.07698 21.8579 6.08083 21.8539L16.5997 11.335C16.7864 11.1483 16.7864 10.8457 16.5997 10.6589L6.08177 0.140082Z" fill="#F44336"/>
<path d="M5.74365 21.9946C5.47958 21.9951 5.26514 21.7814 5.26465 21.5173C5.26443 21.39 5.31499 21.2679 5.40513 21.178L15.5865 10.9976L5.40513 0.817256C5.21817 0.630292 5.21817 0.327187 5.40513 0.140223C5.59209 -0.046741 5.8952 -0.046741 6.08216 0.140223L16.6011 10.6591C16.7877 10.8458 16.7877 11.1485 16.6011 11.3352L6.08216 21.8541C5.99251 21.944 5.87068 21.9946 5.74365 21.9946Z" fill="black"/>
</g>
<defs>
<clipPath id="clip0_1_398">
<rect width="22" height="22" fill="white" transform="translate(11)"/>
</clipPath>
<clipPath id="clip1_1_398">
<rect width="22" height="22" fill="white"/>
</clipPath>
</defs>
</svg>
