<svg width="33" height="22" viewBox="0 0 33 22" fill="none" xmlns="http://www.w3.org/2000/svg">
<g clip-path="url(#clip0_1_407)">
<path d="M15.9182 21.8599C16.1082 22.0434 16.4109 22.0381 16.5943 21.8482C16.7733 21.6629 16.7733 21.3691 16.5943 21.1839L6.41394 11.0026L16.5953 0.822176C16.7852 0.638708 16.7904 0.336052 16.607 0.146084C16.4235 -0.0438385 16.1209 -0.0490838 15.9309 0.13434C15.9269 0.138195 15.923 0.142094 15.9192 0.146084L5.40028 10.665C5.21362 10.8517 5.21362 11.1543 5.40028 11.3411L15.9182 21.8599Z" fill="#F44336"/>
<path d="M16.2564 0.00537105C16.5204 0.00487707 16.7349 0.218601 16.7354 0.482664C16.7356 0.609966 16.685 0.732115 16.5949 0.822033L6.41355 11.0024L16.5949 21.1827C16.7818 21.3697 16.7818 21.6728 16.5949 21.8598C16.4079 22.0467 16.1048 22.0467 15.9178 21.8598L5.39894 11.3409C5.21229 11.1542 5.21229 10.8515 5.39894 10.6648L15.9178 0.145941C16.0075 0.0559768 16.1293 0.00537104 16.2564 0.00537105Z" fill="black"/>
</g>
<g clip-path="url(#clip1_1_407)">
<path d="M26.9182 21.8599C27.1082 22.0434 27.4109 22.0381 27.5943 21.8482C27.7733 21.6629 27.7733 21.3691 27.5943 21.1839L17.4139 11.0026L27.5953 0.822176C27.7852 0.638708 27.7904 0.336052 27.607 0.146084C27.4235 -0.0438385 27.1209 -0.0490838 26.9309 0.13434C26.9269 0.138195 26.923 0.142094 26.9192 0.146084L16.4003 10.665C16.2136 10.8517 16.2136 11.1543 16.4003 11.3411L26.9182 21.8599Z" fill="#F44336"/>
<path d="M27.2564 0.00537105C27.5204 0.00487707 27.7349 0.218601 27.7354 0.482664C27.7356 0.609966 27.685 0.732115 27.5949 0.822033L17.4136 11.0024L27.5949 21.1827C27.7818 21.3697 27.7818 21.6728 27.5949 21.8598C27.4079 22.0467 27.1048 22.0467 26.9178 21.8598L16.3989 11.3409C16.2123 11.1542 16.2123 10.8515 16.3989 10.6648L26.9178 0.145941C27.0075 0.0559768 27.1293 0.00537104 27.2564 0.00537105Z" fill="black"/>
</g>
<defs>
<clipPath id="clip0_1_407">
<rect width="22" height="22" fill="white" transform="translate(22 22) rotate(-180)"/>
</clipPath>
<clipPath id="clip1_1_407">
<rect width="22" height="22" fill="white" transform="translate(33 22) rotate(-180)"/>
</clipPath>
</defs>
</svg>
