<svg width="29" height="29" viewBox="0 0 29 29" fill="white" xmlns="http://www.w3.org/2000/svg">
<g clip-path="url(#clip0_1_1460)">
<path d="M28.8153 8.01697C29.0571 7.76662 29.0501 7.3676 28.7998 7.12576C28.5555 6.88988 28.1683 6.88988 27.9241 7.12576L14.5033 20.5453L1.08369 7.12452C0.841847 6.87416 0.44289 6.86725 0.192478 7.10903C-0.0578745 7.35088 -0.0647873 7.74983 0.176997 8.00025C0.182079 8.0055 0.187219 8.01065 0.192478 8.01573L14.0583 21.8815C14.3044 22.1276 14.7033 22.1276 14.9495 21.8815L28.8153 8.01697Z" fill="white"/>
<path d="M0.00707955 7.57086C0.00642961 7.22278 0.288156 6.9401 0.636239 6.93945C0.804047 6.93916 0.96506 7.00581 1.08359 7.12463L14.5032 20.5455L27.9227 7.12463C28.1692 6.87818 28.5687 6.87818 28.8152 7.12463C29.0616 7.37109 29.0616 7.77063 28.8152 8.01709L14.9493 21.8829C14.7032 22.1289 14.3043 22.1289 14.0581 21.8829L0.192376 8.01709C0.0737882 7.89891 0.00707955 7.73831 0.00707955 7.57086Z" fill="white" fill-opacity="0.5"/>
</g>
<defs>
<clipPath id="clip0_1_1460">
<rect width="29" height="29" fill="white" transform="translate(29) rotate(90)"/>
</clipPath>
</defs>
</svg>
