<svg width="18" height="12" viewBox="0 0 18 12" fill="none" xmlns="http://www.w3.org/2000/svg">
<g clip-path="url(#clip0_1_389)">
<path d="M9.26949 0.904878C9.17609 0.814648 9.02722 0.817249 8.93699 0.910654C8.84898 1.00179 8.84898 1.14625 8.93699 1.23736L13.9437 6.24457L8.93652 11.2513C8.84312 11.3415 8.84054 11.4904 8.93075 11.5838C9.02098 11.6772 9.16983 11.6798 9.26325 11.5896C9.26521 11.5877 9.26713 11.5858 9.26903 11.5838L14.4423 6.41059C14.5341 6.31877 14.5341 6.16992 14.4423 6.07808L9.26949 0.904878Z" fill="#F44336"/>
<path d="M9.10325 11.653C8.97338 11.6532 8.86792 11.5481 8.86768 11.4182C8.86757 11.3556 8.89243 11.2956 8.93677 11.2513L13.944 6.24459L8.93677 1.23787C8.84482 1.14592 8.84482 0.996849 8.93677 0.9049C9.02871 0.81295 9.17778 0.81295 9.26973 0.9049L14.443 6.07813C14.5348 6.16994 14.5348 6.31879 14.443 6.41063L9.26973 11.5838C9.22564 11.6281 9.16572 11.653 9.10325 11.653Z" fill="#8A8FFD"/>
</g>
<g clip-path="url(#clip1_1_389)">
<path d="M3.85982 0.904878C3.76642 0.814648 3.61755 0.817249 3.52732 0.910654C3.43932 1.00179 3.43932 1.14625 3.52732 1.23736L8.53406 6.24457L3.52686 11.2513C3.43345 11.3415 3.43087 11.4904 3.52108 11.5838C3.61131 11.6772 3.76016 11.6798 3.85358 11.5896C3.85555 11.5877 3.85746 11.5858 3.85936 11.5838L9.03259 6.41059C9.12438 6.31877 9.12438 6.16992 9.03259 6.07808L3.85982 0.904878Z" fill="#F44336"/>
<path d="M3.69358 11.653C3.56371 11.6532 3.45825 11.5481 3.45801 11.4182C3.4579 11.3556 3.48276 11.2956 3.5271 11.2513L8.5343 6.24459L3.5271 1.23787C3.43515 1.14592 3.43515 0.996849 3.5271 0.9049C3.61905 0.81295 3.76811 0.81295 3.86006 0.9049L9.03329 6.07813C9.12509 6.16994 9.12509 6.31879 9.03329 6.41063L3.86006 11.5838C3.81597 11.6281 3.75606 11.653 3.69358 11.653Z" fill="#8A8FFD"/>
</g>
<defs>
<clipPath id="clip0_1_389">
<rect width="10.8197" height="10.8197" fill="white" transform="translate(6.27832 0.835938)"/>
</clipPath>
<clipPath id="clip1_1_389">
<rect width="10.8197" height="10.8197" fill="white" transform="translate(0.868652 0.835938)"/>
</clipPath>
</defs>
</svg>
