<svg width="35" height="35" viewBox="0 0 35 35" fill="none" xmlns="http://www.w3.org/2000/svg">
<g clip-path="url(#clip0_1_1221)">
<path d="M33.445 22.947C32.6837 22.0346 31.8236 21.22 30.9918 20.4321C30.6995 20.1552 30.397 19.8688 30.1058 19.5845C30.1058 19.5845 30.1057 19.5844 30.1056 19.5843C29.7139 19.2023 29.5222 18.9311 29.5021 18.7308C29.4825 18.5339 29.617 18.2418 29.9264 17.8101C30.3892 17.1606 30.8824 16.5101 31.3595 15.8811C31.7836 15.3219 32.2221 14.7437 32.6424 14.1621L32.7367 14.0315C33.5567 12.8966 34.4045 11.7231 34.8588 10.293C34.9885 9.88301 35.1233 9.27625 34.7983 8.74359C34.4732 8.21079 33.8705 8.05288 33.4457 7.98056C33.2382 7.94501 33.0413 7.94207 32.8581 7.94207L27.5393 7.93736C26.6198 7.92204 25.9818 8.3579 25.6341 9.23318C25.3559 9.93223 25.0273 10.7424 24.6466 11.5109C23.9183 12.9945 22.9927 14.7033 21.6512 16.127L21.5916 16.1904C21.5003 16.2879 21.3511 16.4473 21.2744 16.4839C21.1291 16.3926 20.9614 15.8702 20.9691 15.5966C20.9693 15.5898 20.9694 15.5831 20.9694 15.5764L20.9646 9.43067C20.9646 9.39943 20.9625 9.36819 20.9583 9.33722C20.839 8.46044 20.6064 7.58148 19.2187 7.30763C19.1742 7.29881 19.129 7.29443 19.0837 7.29443H13.551C12.5101 7.29443 11.9596 7.77111 11.5182 8.2879C11.3904 8.43857 11.0509 8.83861 11.2239 9.32765C11.3989 9.82251 11.9203 9.92129 12.0915 9.95369C12.6944 10.0681 13.0062 10.4089 13.1027 11.0604C13.2935 12.3262 13.3169 13.6803 13.1764 15.3198C13.1373 15.76 13.0644 16.0945 12.9468 16.3727C12.9143 16.4498 12.8857 16.4975 12.8657 16.5256C12.8339 16.5127 12.7843 16.4881 12.7157 16.4412C12.292 16.1512 11.9727 15.7006 11.6639 15.2648C10.4306 13.5235 9.39314 11.6003 8.49196 9.38439C8.12083 8.47637 7.42316 7.96921 6.52874 7.95609C4.82467 7.92772 3.24864 7.9284 1.71219 7.95827C0.987513 7.97085 0.479327 8.19897 0.201514 8.6364C-0.0766409 9.07465 -0.0664554 9.63343 0.231866 10.2975C2.36441 15.0396 4.30076 18.4893 6.51015 21.483C8.06581 23.5907 9.63179 25.0537 11.4383 26.0873C13.3364 27.1732 15.477 27.7054 17.9604 27.7053C18.2428 27.7053 18.5301 27.6984 18.8212 27.6845C20.3534 27.6147 20.9767 27.0053 21.0448 25.5131C21.0829 24.7244 21.1707 24.0855 21.4752 23.5305C21.5604 23.3751 21.6565 23.2709 21.7323 23.2518C21.8128 23.2317 21.9556 23.281 22.1144 23.3842C22.4047 23.5727 22.6547 23.8284 22.8603 24.0528C23.0686 24.2809 23.2792 24.5166 23.4829 24.7444C23.9165 25.2295 24.3649 25.7312 24.8347 26.2097C25.8972 27.2928 27.1221 27.7895 28.4767 27.6855L33.3443 27.6878C33.3444 27.6878 33.3445 27.6878 33.3446 27.6878C33.36 27.6878 33.3755 27.6873 33.3909 27.6863C33.9523 27.6489 34.4378 27.338 34.7228 26.8333C35.0661 26.2254 35.0609 25.4555 34.7087 24.7729C34.3412 24.0633 33.8644 23.4525 33.445 22.947ZM33.5087 26.1477C33.4416 26.2666 33.3588 26.2882 33.3161 26.2934L28.4495 26.2912C28.4494 26.2912 28.4493 26.2912 28.4491 26.2912C28.4298 26.2912 28.4106 26.2919 28.3916 26.2936C27.4328 26.3734 26.6179 26.0364 25.8299 25.2332C25.3829 24.7778 24.9455 24.2885 24.5226 23.8153C24.3164 23.5847 24.1034 23.3462 23.8893 23.1119C23.6238 22.8219 23.2956 22.4887 22.8739 22.2148C22.2425 21.805 21.7193 21.8174 21.3916 21.8999C21.0674 21.9816 20.6065 22.2147 20.2527 22.8603C19.7945 23.6956 19.6934 24.5967 19.6522 25.448C19.6284 25.9686 19.5404 26.1062 19.5036 26.1411C19.4554 26.1869 19.2943 26.2674 18.757 26.292C16.1746 26.4134 14.0075 25.9509 12.1308 24.8772C10.4982 23.9431 9.06871 22.6015 7.63213 20.6552C5.48393 17.7445 3.59379 14.3738 1.5037 9.72605C1.42795 9.55768 1.40457 9.45262 1.39781 9.39636C1.45113 9.37886 1.55531 9.35582 1.73796 9.35247C3.25883 9.32301 4.81838 9.32219 6.50707 9.35035C6.73826 9.35377 7.00151 9.42315 7.20085 9.9109C8.14244 12.2262 9.23011 14.2411 10.5262 16.0709C10.8703 16.5566 11.2987 17.1612 11.9282 17.5919C12.5048 17.9868 12.9727 17.9679 13.2638 17.8826C13.555 17.7972 13.9592 17.56 14.2314 16.9155C14.407 16.5001 14.5131 16.0323 14.5657 15.4413C14.7159 13.6876 14.6892 12.2297 14.482 10.8545C14.3359 9.8692 13.8272 9.15744 13.0258 8.79397C13.1681 8.71987 13.3285 8.68897 13.5512 8.68897H19.0115C19.3187 8.75788 19.3796 8.83881 19.4004 8.8665C19.4889 8.98415 19.5395 9.26244 19.5704 9.47989L19.575 15.569C19.5627 16.1527 19.8464 17.4473 20.8123 17.8023C20.8203 17.8052 20.8283 17.8079 20.8363 17.8105C21.7156 18.0979 22.2973 17.4771 22.6096 17.1436L22.6652 17.0844C24.1347 15.5248 25.1242 13.7025 25.8973 12.1278C26.3002 11.3147 26.6414 10.4736 26.93 9.74854C27.0743 9.38494 27.2057 9.32506 27.5192 9.33169C27.5235 9.33182 27.5278 9.33182 27.5322 9.33182L32.8577 9.33654C32.9816 9.33654 33.1108 9.33798 33.2111 9.35514C33.4649 9.39834 33.5694 9.45097 33.6038 9.47278C33.6074 9.51318 33.6066 9.62939 33.5299 9.87193C33.1436 11.088 32.397 12.1212 31.6067 13.2151L31.5123 13.3458C31.1017 13.914 30.6681 14.4857 30.2488 15.0387C29.7655 15.6759 29.266 16.3347 28.7923 16.9995C27.7796 18.4124 27.8686 19.3501 29.1324 20.5827C29.431 20.8743 29.7372 21.1643 30.0333 21.4447C30.8728 22.2399 31.6659 22.991 32.3736 23.839C32.7441 24.2857 33.1641 24.8221 33.4702 25.4133C33.6299 25.7228 33.5907 26.0023 33.5087 26.1477Z" fill="black"/>
</g>
<defs>
<clipPath id="clip0_1_1221">
<rect width="35" height="35" fill="white"/>
</clipPath>
</defs>
</svg>
